HIERARCHY
ROOT hip
{
  OFFSET 0 0 0
  CHANNELS 6 Xposition Yposition Zposition Zrotation Yrotation Xrotation
  JOINT abdomen
  {
    OFFSET 0 20.6881 -0.73152
    CHANNELS 3 Zrotation Xrotation Yrotation
    JOINT chest
    {
      OFFSET 0 11.7043 -0.48768
      CHANNELS 3 Zrotation Xrotation Yrotation
      JOINT neck
      {
        OFFSET 0 22.1894 -2.19456
        CHANNELS 3 Zrotation Xrotation Yrotation
        JOINT head
        {
          OFFSET -0.24384 7.07133 1.2192
          CHANNELS 3 Zrotation Xrotation Yrotation
          JOINT leftEye
          {
            OFFSET 4.14528 8.04674 8.04672
            CHANNELS 3 Zrotation Xrotation Yrotation
            End Site
            {
              OFFSET 1 0 0
            }
          }
          JOINT rightEye
          {
            OFFSET -3.6576 8.04674 8.04672
            CHANNELS 3 Zrotation Xrotation Yrotation
            End Site
            {
              OFFSET 1 0 0
            }
          }
        }
      }
      JOINT rCollar
      {
        OFFSET -2.68224 19.2634 -4.8768
        CHANNELS 3 Zrotation Xrotation Yrotation
        JOINT rShldr
        {
          OFFSET -8.77824 -1.95073 1.46304
          CHANNELS 3 Zrotation Xrotation Yrotation
          JOINT rForeArm
          {
            OFFSET -28.1742 -1.7115 0.48768
            CHANNELS 3 Zrotation Xrotation Yrotation
            JOINT rHand
            {
              OFFSET -22.5879 0.773209 7.07136
              CHANNELS 3 Zrotation Xrotation Yrotation
              JOINT rThumb1
              {
                OFFSET -1.2192 -0.487915 3.41376
                CHANNELS 3 Zrotation Xrotation Yrotation
                JOINT rThumb2
                {
                  OFFSET -3.37035 -0.52449 3.41376
                  CHANNELS 3 Zrotation Xrotation Yrotation
                  End Site
                  {
                    OFFSET -1.78271 -1.18214 1.43049
                  }
                }
              }
              JOINT rIndex1
              {
                OFFSET -7.75947 0.938293 5.60832
                CHANNELS 3 Zrotation Xrotation Yrotation
                JOINT rIndex2
                {
                  OFFSET -2.54057 -0.884171 1.56538
                  CHANNELS 3 Zrotation Xrotation Yrotation
                  End Site
                  {
                    OFFSET -1.62519 -0.234802 1.16502
                  }
                }
              }
              JOINT rMid1
              {
                OFFSET -8.24714 1.18213 3.41376
                CHANNELS 3 Zrotation Xrotation Yrotation
                JOINT rMid2
                {
                  OFFSET -3.10165 -0.590103 1.0647
                  CHANNELS 3 Zrotation Xrotation Yrotation
                  End Site
                  {
                    OFFSET -2.48547 -0.328903 0.83742
                  }
                }
              }
              JOINT rRing1
              {
                OFFSET -8.82822 0.546677 1.51678
                CHANNELS 3 Zrotation Xrotation Yrotation
                JOINT rRing2
                {
                  OFFSET -2.60934 -0.819778 -0.0198488
                  CHANNELS 3 Zrotation Xrotation Yrotation
                  End Site
                  {
                    OFFSET -2.33842 -0.294052 0.168128
                  }
                }
              }
              JOINT rPinky1
              {
                OFFSET -8.27202 -0.0477905 -0.4584
                CHANNELS 3 Zrotation Xrotation Yrotation
                JOINT rPinky2
                {
                  OFFSET -1.82734 -0.647385 -0.700984
                  CHANNELS 3 Zrotation Xrotation Yrotation
                  End Site
                  {
                    OFFSET -1.69225 -0.51767 -0.607171
                  }
                }
              }
            }
          }
        }
      }
      JOINT lCollar
      {
        OFFSET 2.68224 19.2634 -4.8768
        CHANNELS 3 Zrotation Xrotation Yrotation
        JOINT lShldr
        {
          OFFSET 8.77824 -1.95073 1.46304
          CHANNELS 3 Zrotation Xrotation Yrotation
          JOINT lForeArm
          {
            OFFSET 28.1742 -1.7115 0.48768
            CHANNELS 3 Zrotation Xrotation Yrotation
            JOINT lHand
            {
              OFFSET 22.5879 0.773209 7.07136
              CHANNELS 3 Zrotation Xrotation Yrotation
              JOINT lThumb1
              {
                OFFSET 1.2192 -0.487915 3.41376
                CHANNELS 3 Zrotation Xrotation Yrotation
                JOINT lThumb2
                {
                  OFFSET 3.37035 -0.52449 3.41376
                  CHANNELS 3 Zrotation Xrotation Yrotation
                  End Site
                  {
                    OFFSET 1.78271 -1.18214 1.43049
                  }
                }
              }
              JOINT lIndex1
              {
                OFFSET 7.75947 0.938293 5.60832
                CHANNELS 3 Zrotation Xrotation Yrotation
                JOINT lIndex2
                {
                  OFFSET 2.54057 -0.884171 1.56538
                  CHANNELS 3 Zrotation Xrotation Yrotation
                  End Site
                  {
                    OFFSET 1.62519 -0.234802 1.16502
                  }
                }
              }
              JOINT lMid1
              {
                OFFSET 8.24714 1.18213 3.41376
                CHANNELS 3 Zrotation Xrotation Yrotation
                JOINT lMid2
                {
                  OFFSET 3.10165 -0.590103 1.0647
                  CHANNELS 3 Zrotation Xrotation Yrotation
                  End Site
                  {
                    OFFSET 2.48547 -0.328903 0.83742
                  }
                }
              }
              JOINT lRing1
              {
                OFFSET 8.82822 0.546677 1.51678
                CHANNELS 3 Zrotation Xrotation Yrotation
                JOINT lRing2
                {
                  OFFSET 2.60934 -0.819778 -0.0198488
                  CHANNELS 3 Zrotation Xrotation Yrotation
                  End Site
                  {
                    OFFSET 2.33842 -0.294052 0.168128
                  }
                }
              }
              JOINT lPinky1
              {
                OFFSET 8.27202 -0.0477905 -0.4584
                CHANNELS 3 Zrotation Xrotation Yrotation
                JOINT lPinky2
                {
                  OFFSET 1.82734 -0.647385 -0.700984
                  CHANNELS 3 Zrotation Xrotation Yrotation
                  End Site
                  {
                    OFFSET 1.69225 -0.51767 -0.607171
                  }
                }
              }
            }
          }
        }
      }
    }
  }
  JOINT rButtock
  {
    OFFSET -8.77824 4.35084 1.2192
    CHANNELS 3 Zrotation Xrotation Yrotation
    JOINT rThigh
    {
      OFFSET 0 -1.70687 -2.19456
      CHANNELS 3 Zrotation Xrotation Yrotation
      JOINT rShin
      {
        OFFSET 0 -36.8199 0.73152
        CHANNELS 3 Zrotation Xrotation Yrotation
        JOINT rFoot
        {
          OFFSET 0.73152 -45.1104 -5.12064
          CHANNELS 3 Zrotation Xrotation Yrotation
          End Site
          {
            OFFSET -1.1221 -3.69964 12.103
          }
        }
      }
    }
  }
  JOINT lButtock
  {
    OFFSET 8.77824 4.35084 1.2192
    CHANNELS 3 Zrotation Xrotation Yrotation
    JOINT lThigh
    {
      OFFSET 0 -1.70687 -2.19456
      CHANNELS 3 Zrotation Xrotation Yrotation
      JOINT lShin
      {
        OFFSET 0 -36.8199 0.73152
        CHANNELS 3 Zrotation Xrotation Yrotation
        JOINT lFoot
        {
          OFFSET -0.73152 -45.1104 -5.12064
          CHANNELS 3 Zrotation Xrotation Yrotation
          End Site
          {
            OFFSET 1.1221 -3.69964 12.103
          }
        }
      }
    }
  }
}
MOTION
Frames:	7
Frame Time:	0.03333
-15.9844 75.3925 -194.086 -10.243803024291992 -24.32579803466797 6.095700263977051 6.513202667236328 10.434590339660645 10.12459945678711 -0.8597854971885681 -6.463840007781982 2.8728959560394287 -3.370511054992676 12.750611305236816 -0.7256218791007996 7.142500877380371 -21.616004943847656 0.11544336378574371 -0.0 0.0 -0.0 -0.0 0.0 -0.0 -0.0 0.0 0.0 68.13599395751953 35.52299880981445 4.460205078125 -16.024599075317383 -8.710138320922852 29.72490692138672 -0.009739765897393227 2.816038131713867 0.3962537944316864 -0.0 0.0 -0.0 -0.0 0.0 -0.0 -0.0 0.0 -0.0 7.730902194976807 5.47491455078125 0.4173222780227661 -0.0 0.0 -0.0 2.905566453933716 0.9650754332542419 0.10300818830728531 -0.0 0.0 -0.0 10.278596878051758 0.7318810820579529 0.026273518800735474 -0.0 0.0 -0.0 2.221662998199463 -0.7334509491920471 -0.20832103490829468 -0.0 0.0 0.0 -70.10199737548828 28.445898056030273 -5.453126907348633 16.674894332885742 -9.329827308654785 -31.110395431518555 0.10108627378940582 9.031432151794434 -1.2798813581466675 -0.0 0.0 0.0 -0.0 0.0 0.0 -0.0 0.0 0.0 -7.730902194976807 5.47491455078125 -0.4173222780227661 -0.0 0.0 0.0 -2.905566453933716 0.9650754332542419 -0.10300818830728531 -0.0 0.0 0.0 -10.278596878051758 0.7318810820579529 -0.026273518800735474 -0.0 0.0 0.0 -2.221662998199463 -0.7334509491920471 0.20832103490829468 -0.0 0.0 -0.0 -1.6189579963684082 -8.081393241882324 -9.023297309875488 -0.414885938167572 47.24689865112305 1.4297133684158325 -16.67909049987793 -19.82079315185547 -29.210094451904297 0.0 0.0 0.0 41.70972442626953 -52.04879379272461 28.57993507385254 0.7345837354660034 50.61589813232422 -0.4578678011894226 0.7697789669036865 7.283530235290527 -3.242727518081665
-15.798799999999998 75.3011 -193.705 -10.571280479431152 -24.525104522705078 6.577615737915039 6.732367992401123 10.502908706665039 10.33387565612793 -0.9335922598838806 -6.541334629058838 2.935514450073242 -3.2594375610351562 12.786799430847168 -0.5740347504615784 6.923803329467773 -21.992900848388672 0.38821113109588623 -0.0 0.0 -0.0 -0.0 0.0 -0.0 -0.0 0.0 -0.0 66.83399963378906 37.28370666503906 6.067356586456299 -16.167903900146484 -8.843657493591309 30.02910804748535 -0.014256499707698822 3.4073452949523926 0.47931256890296936 -0.0 0.0 -0.0 -0.0 0.0 -0.0 -0.0 0.0 -0.0 7.730902194976807 5.47491455078125 0.4173222780227661 -0.0 0.0 -0.0 2.905566453933716 0.9650754332542419 0.10300818830728531 -0.0 0.0 -0.0 10.278596878051758 0.7318810820579529 0.026273518800735474 -0.0 0.0 -0.0 2.221662998199463 -0.7334509491920471 -0.20832103490829468 -0.0 0.0 -0.0 -69.29560089111328 28.671302795410156 -6.519952297210693 16.820703506469727 -9.472447395324707 -31.424991607666016 0.06961941719055176 8.226292610168457 -1.1631183624267578 -0.0 0.0 -0.0 -0.0 0.0 -0.0 -0.0 0.0 -0.0 -7.730902194976807 5.47491455078125 -0.4173222780227661 -0.0 0.0 -0.0 -2.905566453933716 0.9650754332542419 -0.10300818830728531 -0.0 0.0 -0.0 -10.278596878051758 0.7318810820579529 -0.026273518800735474 -0.0 0.0 -0.0 -2.221662998199463 -0.7334509491920471 0.20832103490829468 -0.0 0.0 -0.0 -1.868424892425537 -8.427205085754395 -9.946606636047363 -0.41828465461730957 47.44509506225586 1.4472262859344482 -16.545488357543945 -19.781715393066406 -29.043100357055664 0.0 0.0 0.0 43.250213623046875 -52.44468688964844 30.535720825195312 0.7724891901016235 51.68519592285156 -0.5272282361984253 0.7379010319709778 7.05798864364624 -3.3638792037963867
-15.6479 75.2171 -193.349 -10.840595245361328 -24.591506958007812 6.9280009269714355 6.805814743041992 10.65990924835205 10.479401588439941 -0.9274529814720154 -6.661880970001221 2.981400966644287 -3.206799268722534 12.835796356201172 -0.4592200815677643 6.84722900390625 -22.425580978393555 0.6220393776893616 -0.0 0.0 -0.0 -0.0 0.0 -0.0 0.0 0.0 -0.0 65.44509887695312 38.919212341308594 7.629845142364502 -16.390108108520508 -9.0551118850708 30.499404907226562 -0.021524500101804733 4.184430122375488 0.5891860127449036 -0.0 -0.0 -0.0 -0.0 -0.0 -0.0 -0.0 -0.0 -0.0 7.730902194976807 5.47491455078125 0.4173222780227661 -0.0 -0.0 -0.0 2.905566453933716 0.9650754332542419 0.10300818830728531 -0.0 -0.0 -0.0 10.278596878051758 0.7318810820579529 0.026273518800735474 -0.0 -0.0 -0.0 2.221662998199463 -0.7334509491920471 -0.20832103490829468 0.0 0.0 -0.0 -68.51240539550781 28.875398635864258 -7.601191520690918 16.990596771240234 -9.641069412231445 -31.792909622192383 0.07346324622631073 7.709717750549316 -1.090222716331482 0.0 0.0 -0.0 0.0 0.0 -0.0 0.0 0.0 -0.0 -7.730902194976807 5.47491455078125 -0.4173222780227661 0.0 0.0 -0.0 -2.905566453933716 0.9650754332542419 -0.10300818830728531 0.0 0.0 -0.0 -10.278596878051758 0.7318810820579529 -0.026273518800735474 0.0 0.0 -0.0 -2.221662998199463 -0.7334509491920471 0.20832103490829468 -0.0 0.0 -0.0 -2.098203659057617 -8.644983291625977 -10.658300399780273 -0.41919559240341187 47.598289489746094 1.4669417142868042 -16.489492416381836 -19.78350257873535 -28.975297927856445 0.0 0.0 0.0 44.622901916503906 -52.76389694213867 32.53760528564453 0.8077149987220764 52.613582611083984 -0.5917081832885742 0.6974816918373108 6.876557350158691 -3.325274705886841
-15.5004 75.1136 -193.016 -10.931396484375 -24.60000228881836 7.161416053771973 6.733452320098877 10.905689239501953 10.561321258544922 -0.8411568403244019 -6.825482368469238 3.010464906692505 -3.2125775814056396 12.897808074951172 -0.38144367933273315 6.912502765655518 -22.91429901123047 0.816585123538971 -0.0 0.0 -0.0 -0.0 0.0 -0.0 0.0 0.0 -0.0 63.986793518066406 40.43209457397461 9.139556884765625 -16.686996459960938 -9.341348648071289 31.137088775634766 -0.03259984403848648 5.147185325622559 0.7252710461616516 0.0 0.0 0.0 0.0 0.0 0.0 0.0 0.0 0.0 7.730902194976807 5.47491455078125 0.4173222780227661 0.0 0.0 0.0 2.905566453933716 0.9650754332542419 0.10300818830728531 0.0 0.0 0.0 10.278596878051758 0.7318810820579529 0.026273518800735474 0.0 0.0 0.0 2.221662998199463 -0.7334509491920471 -0.20832103490829468 0.0 0.0 -0.0 -67.75309753417969 29.057697296142578 -8.696394920349121 17.18360137939453 -9.834784507751465 -32.214202880859375 0.06915323436260223 7.482107639312744 -1.0575748682022095 0.0 0.0 -0.0 0.0 0.0 -0.0 0.0 0.0 -0.0 -7.730902194976807 5.47491455078125 -0.4173222780227661 0.0 0.0 -0.0 -2.905566453933716 0.9650754332542419 -0.10300818830728531 0.0 0.0 -0.0 -10.278596878051758 0.7318810820579529 -0.026273518800735474 0.0 0.0 -0.0 -2.221662998199463 -0.7334509491920471 0.20832103490829468 -0.0 0.0 -0.0 -2.3013219833374023 -8.73706340789795 -11.15709400177002 -0.4175906181335449 47.70659637451172 1.4891245365142822 -16.51059913635254 -19.826400756835938 -29.006502151489258 0.0 0.0 0.0 45.819000244140625 -53.00489807128906 34.576805114746094 0.8378208875656128 53.40138626098633 -0.6488469839096069 0.6501317620277405 6.739166736602783 -3.1270740032196045
-15.3643 75.0417 -192.719 -10.883304595947266 -24.58319854736328 7.239798545837402 6.585016250610352 11.094683647155762 10.673608779907227 -0.7584275007247925 -6.936101913452148 3.045391321182251 -3.2235496044158936 12.967790603637695 -0.3310876488685608 6.962294578552246 -23.384601593017578 0.9534887075424194 -0.0 0.0 -0.0 -0.0 0.0 -0.0 0.0 0.0 -0.0 62.498897552490234 41.74230194091797 10.631403923034668 -17.01298713684082 -9.663655281066895 31.84099769592285 -0.04402530565857887 5.9774699211120605 0.8432096838951111 -0.0 -0.0 -0.0 -0.0 -0.0 -0.0 -0.0 -0.0 -0.0 7.730902194976807 5.47491455078125 0.4173222780227661 -0.0 -0.0 -0.0 2.905566453933716 0.9650754332542419 0.10300818830728531 -0.0 -0.0 -0.0 10.278596878051758 0.7318810820579529 0.026273518800735474 -0.0 -0.0 -0.0 2.221662998199463 -0.7334509491920471 -0.20832103490829468 0.0 0.0 -0.0 -66.98430633544922 29.252300262451172 -9.765535354614258 17.42060089111328 -10.077281951904297 -32.73230743408203 0.07934203743934631 7.270048141479492 -1.0282535552978516 0.0 0.0 -0.0 0.0 0.0 -0.0 0.0 0.0 -0.0 -7.730902194976807 5.47491455078125 -0.4173222780227661 0.0 0.0 -0.0 -2.905566453933716 0.9650754332542419 -0.10300818830728531 0.0 0.0 -0.0 -10.278596878051758 0.7318810820579529 -0.026273518800735474 0.0 0.0 -0.0 -2.221662998199463 -0.7334509491920471 0.20832103490829468 -0.0 0.0 -0.0 -2.534153938293457 -8.74308967590332 -11.448315620422363 -0.41354721784591675 47.692996978759766 1.5072307586669922 -16.523683547973633 -19.757909774780273 -29.117387771606445 0.0 0.0 0.0 46.8893928527832 -53.165199279785156 36.55729675292969 0.8655752539634705 54.10740280151367 -0.6996785402297974 0.6036001443862915 6.624814033508301 -2.7172651290893555
-15.2224 74.9623 -192.429 -10.823095321655273 -24.57599449157715 7.352188587188721 6.360605239868164 11.226794242858887 10.816186904907227 -0.6792286038398743 -6.993762969970703 3.08598256111145 -3.2394819259643555 13.04560375213623 -0.3079279065132141 6.994974613189697 -23.836584091186523 1.0323351621627808 -0.0 0.0 -0.0 -0.0 0.0 -0.0 0.0 0.0 -0.0 61.00360107421875 42.852195739746094 12.09089183807373 -17.365205764770508 -10.019768714904785 32.611907958984375 -0.05496950447559357 6.675317764282227 0.9425427913665771 -0.0 0.0 -0.0 -0.0 0.0 -0.0 -0.0 0.0 -0.0 7.730902194976807 5.47491455078125 0.4173222780227661 -0.0 0.0 -0.0 2.905566453933716 0.9650754332542419 0.10300818830728531 -0.0 0.0 -0.0 10.278596878051758 0.7318810820579529 0.026273518800735474 -0.0 0.0 -0.0 2.221662998199463 -0.7334509491920471 -0.20832103490829468 0.0 0.0 -0.0 -66.20500946044922 29.459609985351562 -10.808993339538574 17.698598861694336 -10.36620044708252 -33.347900390625 0.06177354231476784 7.07391357421875 -0.9993837475776672 -0.0 -0.0 -0.0 -0.0 -0.0 -0.0 -0.0 -0.0 -0.0 -7.730902194976807 5.47491455078125 -0.4173222780227661 -0.0 -0.0 -0.0 -2.905566453933716 0.9650754332542419 -0.10300818830728531 -0.0 -0.0 -0.0 -10.278596878051758 0.7318810820579529 -0.026273518800735474 -0.0 -0.0 -0.0 -2.221662998199463 -0.7334509491920471 0.20832103490829468 -0.0 0.0 -0.0 -2.7950875759124756 -8.663806915283203 -11.53160572052002 -0.40506431460380554 47.55751419067383 1.5201900005340576 -16.527801513671875 -19.57810401916504 -29.307703018188477 0.0 0.0 0.0 47.82200241088867 -53.249488830566406 38.468902587890625 0.8914965987205505 54.73160171508789 -0.7471422553062439 0.558763325214386 6.533116340637207 -2.095785140991211
-15.113300000000002 74.87610000000001 -192.15000000000003 -10.911093711853027 -24.626705169677734 7.465896129608154 6.35696268081665 11.383602142333984 10.972685813903809 -0.7028542160987854 -7.017808437347412 3.130467176437378 -3.230459690093994 13.033604621887207 -0.3013514280319214 7.016501426696777 -24.248014450073242 1.0762351751327515 -0.0 0.0 -0.0 -0.0 0.0 -0.0 -0.0 -0.0 -0.0 59.50139617919922 43.80939865112305 13.553598403930664 -17.744003295898438 -10.414277076721191 33.44770050048828 -0.06334829330444336 7.163353443145752 1.0120307207107544 -0.0 0.0 -0.0 -0.0 0.0 -0.0 -0.0 0.0 -0.0 7.730902194976807 5.47491455078125 0.4173222780227661 -0.0 0.0 -0.0 2.905566453933716 0.9650754332542419 0.10300818830728531 -0.0 0.0 -0.0 10.278596878051758 0.7318810820579529 0.026273518800735474 -0.0 0.0 -0.0 2.221662998199463 -0.7334509491920471 -0.20832103490829468 -0.0 -0.0 -0.0 -65.32438659667969 29.72319793701172 -11.906604766845703 18.00090217590332 -10.688000679016113 -34.02130126953125 0.05593126639723778 6.733186721801758 -0.950772225856781 -0.0 0.0 -0.0 -0.0 0.0 -0.0 -0.0 0.0 -0.0 -7.730902194976807 5.47491455078125 -0.4173222780227661 -0.0 0.0 -0.0 -2.905566453933716 0.9650754332542419 -0.10300818830728531 -0.0 0.0 -0.0 -10.278596878051758 0.7318810820579529 -0.026273518800735474 -0.0 0.0 -0.0 -2.221662998199463 -0.7334509491920471 0.20832103490829468 -0.0 0.0 -0.0 -2.963773250579834 -8.54034423828125 -11.689602851867676 -0.39807718992233276 47.42270278930664 1.5324664115905762 -16.4871883392334 -19.42550277709961 -29.401395797729492 0.0 0.0 0.0 48.92049789428711 -53.30679702758789 40.32389450073242 0.921209990978241 55.41339111328125 -0.7994005084037781 0.5170431137084961 6.298916339874268 -1.3971928358078003
